<?xml version="1.0" standalone="no"?>
<!DOCTYPE svg PUBLIC "-//W3C//DTD SVG 20010904//EN"
 "http://www.w3.org/TR/2001/REC-SVG-20010904/DTD/svg10.dtd">
<svg version="1.0" xmlns="http://www.w3.org/2000/svg"
 width="300.000000pt" height="118.000000pt" viewBox="0 0 300.000000 118.000000"
 preserveAspectRatio="xMidYMid meet">
<metadata>
Created by potrace 1.10, written by Peter Selinger 2001-2011
</metadata>
<g transform="translate(0.000000,118.000000) scale(0.100000,-0.100000)"
fill="#000000" stroke="none">
<path d="M1319 1125 c-38 -21 -49 -63 -49 -184 0 -182 19 -211 137 -211 37 0
75 -5 83 -10 13 -9 13 -10 0 -10 -9 0 -34 -18 -55 -40 l-39 -40 -11 32 c-14
43 -37 56 -68 39 -14 -7 -31 -10 -37 -6 -12 7 -85 15 -139 15 -14 0 -35 -7
-48 -15 -21 -14 -26 -14 -45 0 -27 18 -101 20 -128 3 -16 -10 -24 -10 -40 0
-33 20 -100 15 -127 -10 l-23 -21 -23 21 c-29 27 -35 27 -64 0 l-23 -22 -28
20 c-43 32 -61 35 -99 17 -28 -13 -39 -14 -54 -5 -23 15 -84 16 -110 2 -52
-28 -64 -124 -24 -184 31 -45 31 -51 3 -70 -34 -24 -31 -90 5 -122 41 -35 71
-39 114 -17 35 19 40 19 71 5 27 -13 38 -14 66 -4 18 7 41 9 50 6 10 -4 28 -1
41 6 19 10 27 10 46 -4 17 -11 26 -13 36 -4 10 8 20 8 37 0 20 -9 27 -7 45 12
12 12 21 31 21 42 0 34 12 62 27 69 21 8 23 4 28 -44 6 -54 20 -79 50 -87 33
-8 90 3 105 21 9 11 17 10 47 -7 31 -19 41 -20 78 -10 23 6 51 8 63 5 12 -3
29 0 37 7 12 10 19 9 38 -3 16 -10 28 -12 40 -6 34 20 38 44 17 125 -12 49
-16 83 -10 93 10 18 8 20 29 -54 6 -23 24 -55 41 -72 26 -27 30 -35 20 -52 -8
-15 -8 -27 0 -41 13 -24 23 -22 -130 -26 -63 -1 -122 -5 -130 -9 -9 -3 -26 -4
-39 -3 -30 4 -50 -25 -35 -49 10 -16 31 -18 160 -20 82 -2 164 0 182 3 30 5
33 8 27 32 -5 23 -2 28 15 29 23 2 23 2 10 -31 -7 -20 -6 -24 5 -20 19 8 28
35 15 48 -17 17 -11 26 17 26 21 0 24 -3 15 -12 -7 -7 -12 -20 -12 -29 0 -30
30 -43 105 -46 84 -3 101 8 91 58 -5 27 -3 30 17 27 17 -2 21 -9 19 -28 -4
-42 11 -53 80 -56 73 -4 98 2 98 22 0 19 7 18 31 -5 19 -18 39 -19 300 -18
305 0 306 0 294 57 -6 28 -5 30 23 30 35 0 63 28 56 57 -3 11 -1 24 5 27 17
11 13 41 -7 59 -9 8 -37 17 -62 19 -50 3 -56 19 -10 31 60 15 57 69 -5 85 -20
6 -31 16 -33 30 -3 20 1 22 40 22 49 0 88 22 88 49 0 35 -24 43 -117 37 -48
-3 -101 -5 -118 -6 -20 0 -37 -9 -52 -27 l-22 -27 -23 21 c-51 48 -164 60
-204 22 l-23 -21 -44 21 c-56 27 -147 29 -170 4 -8 -10 -16 -40 -18 -68 -1
-27 -4 -54 -7 -58 -5 -10 -26 29 -35 65 -9 35 -45 78 -66 78 -29 0 -48 -29
-89 -143 -22 -60 -43 -111 -46 -114 -3 -3 -12 -1 -20 6 -10 8 -21 9 -40 1 -45
-17 -73 -12 -95 16 -27 34 -27 84 0 118 23 30 56 33 99 11 26 -13 30 -13 51 4
22 17 22 21 9 46 -8 15 -27 33 -42 41 -31 16 -29 34 4 34 11 0 33 14 49 31
l29 31 0 135 c0 142 -10 181 -49 203 -31 16 -291 12 -322 -5z m317 -29 c17
-13 19 -27 19 -161 0 -134 -2 -148 -19 -161 -15 -10 -54 -14 -155 -14 -180 0
-171 -9 -171 181 0 130 2 149 18 158 28 17 284 14 308 -3z m-1214 -433 c22
-20 25 -83 4 -83 -9 0 -16 12 -18 33 -2 27 -7 32 -28 32 -22 0 -25 -5 -28 -40
-3 -35 3 -47 43 -93 41 -49 45 -58 45 -106 0 -60 -12 -76 -56 -76 -42 0 -64
23 -64 66 0 46 27 47 32 2 2 -28 7 -33 28 -33 19 0 26 6 28 24 6 38 -5 63 -48
115 -34 41 -40 55 -40 94 0 53 21 82 58 82 14 0 34 -7 44 -17z m150 0 c16 -14
18 -33 18 -151 0 -112 -3 -139 -17 -154 -20 -22 -61 -23 -85 -1 -16 14 -18 33
-18 151 0 112 3 139 17 154 20 22 61 23 85 1z m122 -5 c3 -13 12 -77 21 -143
9 -66 19 -132 22 -147 4 -21 2 -28 -10 -28 -18 0 -27 21 -27 66 0 27 -4 34
-19 34 -22 0 -31 -19 -31 -66 0 -28 -4 -34 -21 -34 -17 0 -20 4 -15 28 8 37
46 288 46 301 0 21 30 11 34 -11z m174 6 c19 -13 22 -24 22 -90 0 -61 -4 -78
-21 -95 -13 -13 -27 -18 -40 -14 -17 6 -19 1 -19 -59 0 -59 -2 -66 -20 -66
-19 0 -20 7 -20 170 l0 170 38 0 c21 0 48 -7 60 -16z m149 10 c33 -9 50 -71
35 -122 -8 -27 -9 -49 -2 -73 12 -41 4 -104 -17 -124 -8 -9 -33 -15 -59 -15
l-44 0 0 170 0 170 33 0 c17 0 42 -3 54 -6z m173 -14 c18 -18 20 -33 20 -148
0 -147 -9 -172 -64 -172 -53 0 -56 10 -56 166 0 116 3 145 16 158 21 22 60 20
84 -4z m86 -33 c7 -27 15 -51 17 -54 3 -2 11 21 18 51 10 44 16 56 31 56 14 0
18 -5 14 -17 -3 -10 -15 -48 -26 -86 l-21 -67 21 -71 c12 -39 24 -78 27 -85 3
-9 -2 -14 -14 -14 -16 0 -22 11 -32 56 -14 62 -25 59 -37 -9 -5 -35 -27 -58
-40 -44 -3 3 6 41 19 86 l25 80 -24 76 c-29 90 -29 97 -7 93 11 -2 21 -21 29
-51z m325 36 c16 -10 29 -23 29 -30 0 -18 -8 -16 -37 7 -30 24 -63 25 -102 5
-29 -14 -36 -25 -52 -79 -27 -92 78 -193 147 -141 21 16 44 20 44 7 0 -15 -58
-42 -90 -42 -98 0 -160 118 -114 216 34 71 110 95 175 57z m241 -119 c26 -71
47 -135 48 -141 0 -24 -18 -13 -29 17 -10 30 -11 30 -81 30 -70 0 -71 0 -81
-30 -10 -28 -29 -42 -29 -21 0 8 43 131 91 259 5 13 15 22 21 20 7 -3 33 -63
60 -134z m213 122 c41 -17 62 -48 70 -101 17 -104 -34 -166 -142 -173 l-63 -4
0 146 0 146 50 0 c28 0 66 -6 85 -14z m239 -1 c80 -38 96 -170 28 -238 -25
-25 -40 -30 -96 -34 l-66 -6 0 147 0 146 51 0 c28 0 65 -7 83 -15z m146 -131
c0 -96 -4 -144 -10 -142 -16 5 -19 288 -2 288 9 0 12 -36 12 -146z m218 134
c-3 -7 -28 -11 -76 -9 l-72 2 0 -60 0 -60 53 -3 c28 -2 52 -7 52 -13 0 -5 -24
-11 -52 -13 l-53 -3 0 -49 0 -48 75 5 c65 5 75 4 75 -11 0 -14 -13 -16 -85
-16 l-85 0 0 145 0 145 86 0 c61 0 85 -3 82 -12z m-268 -280 c0 -12 -8 -18
-23 -18 -35 0 -40 11 -15 37 23 24 38 17 38 -19z m-558 9 c12 -20 -2 -27 -52
-27 -55 0 -70 12 -40 33 21 15 81 11 92 -6z m818 -67 c0 -7 -205 -10 -595 -10
-390 0 -595 3 -595 10 0 7 205 10 595 10 390 0 595 -3 595 -10z m-639 -61 c17
-17 23 -19 30 -8 6 10 9 6 9 -13 0 -38 -35 -39 -44 -2 -5 20 -10 24 -19 15
-16 -16 -24 -14 -30 9 -7 28 26 27 54 -1z m-858 -26 c6 -32 3 -38 -12 -28 -13
8 -15 55 -2 55 5 0 11 -12 14 -27z m70 -3 c4 -16 0 -20 -20 -20 -13 0 -22 3
-20 8 2 4 7 15 10 25 8 22 22 15 30 -13z m38 8 c1 -22 1 -22 9 2 6 22 8 23 15
7 4 -10 3 -23 -3 -29 -16 -16 -42 -2 -42 22 0 28 20 26 21 -2z m89 -9 c0 -12
-7 -17 -20 -16 -13 1 -20 8 -20 23 0 17 4 21 20 17 11 -3 20 -14 20 -24z m50
16 c14 -16 6 -35 -16 -35 -8 0 -14 10 -14 25 0 28 12 32 30 10z m58 -13 c2
-14 -2 -22 -11 -22 -15 0 -29 34 -19 45 11 11 27 -2 30 -23z m152 22 c0 -12
-21 -44 -29 -44 -5 0 -6 11 -3 25 2 14 11 25 18 25 8 0 14 -3 14 -6z m58 -22
c2 -14 -2 -22 -12 -22 -19 0 -29 17 -22 36 8 22 30 12 34 -14z m60 0 c3 -17
-2 -22 -17 -22 -14 0 -21 6 -21 18 0 38 33 41 38 4z m96 6 c-7 -26 -12 -33
-18 -27 -2 2 -7 14 -10 27 -6 18 -4 22 14 22 18 0 20 -4 14 -22z m46 10 c0 7
5 10 10 7 6 -3 10 -14 10 -24 0 -13 -8 -18 -25 -18 -17 0 -25 5 -25 17 0 23
12 33 22 18 6 -10 8 -10 8 0z m67 -8 c-3 -11 -1 -20 5 -20 5 0 7 -4 3 -10 -10
-17 -35 1 -35 26 0 15 6 24 16 24 11 0 15 -6 11 -20z m181 -3 c4 -21 -25 -34
-40 -19 -8 8 -8 16 2 27 16 19 34 15 38 -8z m53 16 c0 -5 2 -16 4 -25 2 -12
-3 -18 -16 -18 -14 0 -19 7 -19 25 0 16 6 25 15 25 8 0 15 -3 16 -7z m55 -8
c-2 -7 1 -18 7 -24 8 -8 5 -11 -11 -11 -16 0 -22 6 -22 23 0 15 6 24 15 24 9
0 14 -6 11 -12z m61 -31 c-3 -3 -12 -4 -20 -2 -11 2 -12 9 -5 28 l10 25 11
-23 c5 -12 8 -25 4 -28z m53 34 c0 7 5 10 10 7 19 -12 11 -44 -10 -42 -14 1
-20 8 -20 27 0 20 2 22 10 10 7 -11 10 -11 10 -2z m75 -14 c0 -10 -8 -20 -17
-22 -18 -3 -26 27 -11 42 12 11 28 0 28 -20z m45 6 c0 -11 5 -20 12 -20 9 0 9
-3 1 -11 -6 -6 -16 -8 -22 -5 -14 9 -15 56 -1 56 6 0 10 -9 10 -20z m115 10
c3 -5 -1 -10 -9 -10 -9 0 -16 -5 -16 -11 0 -5 5 -7 10 -4 6 3 10 1 10 -4 0
-13 -27 -15 -34 -2 -9 14 4 41 19 41 8 0 17 -4 20 -10z"/>
<path d="M1350 1070 c-18 -18 -20 -33 -20 -130 0 -97 2 -112 20 -130 18 -18
33 -20 130 -20 97 0 112 2 130 20 18 18 20 33 20 130 0 149 -1 150 -150 150
-97 0 -112 -2 -130 -20z m248 -12 c18 -18 16 -222 -2 -237 -9 -8 -52 -11 -127
-9 l-114 3 -3 114 c-1 63 0 121 2 128 7 18 226 19 244 1z"/>
<path d="M1452 1014 c-36 -25 -29 -60 19 -84 41 -21 47 -42 15 -48 -10 -2 -23
4 -30 14 -17 23 -40 10 -26 -16 20 -37 80 -37 100 1 14 26 -1 53 -40 69 -16 7
-30 19 -30 27 0 20 28 28 46 13 10 -9 18 -10 25 -3 7 7 4 16 -12 27 -29 20
-39 20 -67 0z"/>
<path d="M511 636 c-8 -9 -11 -55 -9 -137 l3 -124 25 0 25 0 3 115 c1 63 0
125 -3 138 -6 25 -27 29 -44 8z"/>
<path d="M671 545 c-1 -16 -4 -40 -7 -52 -5 -17 -2 -23 10 -23 17 0 19 23 6
75 l-8 30 -1 -30z"/>
<path d="M810 570 c0 -44 3 -80 6 -80 3 0 14 5 25 10 15 9 19 22 19 68 0 57
-11 82 -37 82 -10 0 -13 -21 -13 -80z"/>
<path d="M967 643 c-4 -3 -7 -31 -7 -60 0 -53 1 -54 28 -51 25 3 27 7 30 52 2
32 -1 52 -10 57 -16 11 -32 11 -41 2z"/>
<path d="M960 435 l0 -66 28 3 c26 3 27 5 27 63 0 58 -1 60 -27 63 l-28 3 0
-66z"/>
<path d="M1125 638 c-3 -8 -4 -70 -3 -139 3 -116 4 -124 23 -124 19 0 20 7 20
135 0 120 -2 135 -18 138 -9 2 -19 -3 -22 -10z"/>
<path d="M1751 563 c-13 -38 -26 -74 -29 -80 -3 -10 13 -13 58 -13 45 0 61 3
58 13 -3 6 -15 42 -28 80 -13 37 -26 67 -29 67 -4 0 -17 -30 -30 -67z"/>
<path d="M1944 646 c-3 -7 -3 -61 -2 -122 l3 -109 49 2 c89 4 135 81 102 168
-10 25 -25 49 -34 54 -30 15 -113 20 -118 7z m101 -51 c34 -33 34 -87 0 -121
-43 -43 -60 -29 -63 50 -2 38 -1 75 2 83 8 20 34 16 61 -12z"/>
<path d="M2180 533 l0 -125 48 7 c81 11 112 45 112 120 0 76 -32 109 -112 118
l-48 5 0 -125z m100 69 c18 -15 22 -28 22 -67 -1 -51 -12 -68 -49 -79 -36 -11
-44 22 -34 147 1 22 33 22 61 -1z"/>
<path d="M583 283 c-64 -13 -64 -13 -61 -40 2 -19 11 -29 30 -34 14 -4 138 -6
275 -5 l248 1 3 29 c2 16 -1 33 -7 39 -7 7 -95 11 -246 11 -129 1 -238 0 -242
-1z m35 -40 c-2 -9 -13 -18 -25 -19 -18 -3 -23 1 -23 17 0 15 5 19 15 15 8 -3
15 -1 15 5 0 6 5 7 11 4 5 -4 9 -14 7 -22z m55 19 c3 7 6 1 6 -14 1 -22 -4
-28 -19 -28 -15 0 -20 7 -20 26 0 22 3 24 14 15 11 -9 15 -9 19 1z m65 -20 c2
-14 -2 -22 -12 -22 -19 0 -29 17 -22 36 8 22 30 12 34 -14z m52 16 c0 6 5 12
11 12 9 0 4 -37 -8 -50 -8 -8 -33 32 -26 43 3 5 9 3 14 -4 6 -10 9 -11 9 -1z
m70 -30 c0 -4 -9 -8 -20 -8 -21 0 -24 8 -13 36 6 16 7 16 20 -2 7 -10 13 -21
13 -26z m131 30 c0 -10 2 -10 6 0 2 6 8 10 13 7 10 -6 1 -45 -11 -45 -8 0 -29
32 -29 44 0 12 20 5 21 -6z m75 -13 c-2 -14 -6 -25 -9 -25 -4 0 -11 0 -17 0
-11 0 -14 33 -3 43 15 16 31 6 29 -18z"/>
</g>
</svg>
